<mxfile host="app.diagrams.net" modified="2022-12-16T07:44:52.660Z" agent="5.0 (Windows NT 10.0; Win64; x64) AppleWebKit/537.36 (KHTML, like Gecko) Chrome/108.0.0.0 Safari/537.36 Edg/108.0.1462.46" version="20.7.2" etag="9JXHf1ZL3o2ou22BWJcS" type="github">
  <diagram id="glhK0zOpFnoQOq7FCIw7" name="Страница 1">
    <mxGraphModel dx="1816" dy="549" grid="1" gridSize="10" guides="1" tooltips="1" connect="1" arrows="1" fold="1" page="1" pageScale="1" pageWidth="827" pageHeight="1169" math="0" shadow="0">
      <root>
        <mxCell id="0" />
        <mxCell id="1" parent="0" />
        <mxCell id="yz2SOgv6ChgbIjhnNK0O-1" value="гражданский кодекс РФ" style="text;html=1;strokeColor=none;fillColor=none;align=center;verticalAlign=middle;whiteSpace=wrap;rounded=0;" vertex="1" parent="1">
          <mxGeometry x="280" y="90" width="240" height="30" as="geometry" />
        </mxCell>
        <mxCell id="yz2SOgv6ChgbIjhnNK0O-11" style="edgeStyle=orthogonalEdgeStyle;rounded=0;orthogonalLoop=1;jettySize=auto;html=1;endArrow=none;endFill=0;startArrow=classicThin;startFill=1;" edge="1" parent="1" source="yz2SOgv6ChgbIjhnNK0O-2">
          <mxGeometry relative="1" as="geometry">
            <mxPoint x="140" y="120" as="targetPoint" />
          </mxGeometry>
        </mxCell>
        <mxCell id="yz2SOgv6ChgbIjhnNK0O-25" style="edgeStyle=orthogonalEdgeStyle;rounded=0;orthogonalLoop=1;jettySize=auto;html=1;entryX=0.417;entryY=0;entryDx=0;entryDy=0;entryPerimeter=0;startArrow=none;startFill=0;endArrow=classicThin;endFill=1;" edge="1" parent="1" source="yz2SOgv6ChgbIjhnNK0O-2" target="yz2SOgv6ChgbIjhnNK0O-3">
          <mxGeometry relative="1" as="geometry" />
        </mxCell>
        <mxCell id="yz2SOgv6ChgbIjhnNK0O-2" value="просмотр товара" style="rounded=0;whiteSpace=wrap;html=1;" vertex="1" parent="1">
          <mxGeometry x="80" y="220" width="120" height="60" as="geometry" />
        </mxCell>
        <mxCell id="yz2SOgv6ChgbIjhnNK0O-13" style="edgeStyle=orthogonalEdgeStyle;rounded=0;orthogonalLoop=1;jettySize=auto;html=1;endArrow=none;endFill=0;startArrow=classicThin;startFill=1;" edge="1" parent="1" source="yz2SOgv6ChgbIjhnNK0O-3">
          <mxGeometry relative="1" as="geometry">
            <mxPoint x="300" y="120" as="targetPoint" />
          </mxGeometry>
        </mxCell>
        <mxCell id="yz2SOgv6ChgbIjhnNK0O-26" style="edgeStyle=orthogonalEdgeStyle;rounded=0;orthogonalLoop=1;jettySize=auto;html=1;entryX=0.25;entryY=0;entryDx=0;entryDy=0;startArrow=none;startFill=0;endArrow=classicThin;endFill=1;" edge="1" parent="1" source="yz2SOgv6ChgbIjhnNK0O-3" target="yz2SOgv6ChgbIjhnNK0O-4">
          <mxGeometry relative="1" as="geometry" />
        </mxCell>
        <mxCell id="yz2SOgv6ChgbIjhnNK0O-37" style="edgeStyle=orthogonalEdgeStyle;rounded=0;orthogonalLoop=1;jettySize=auto;html=1;startArrow=classicThin;startFill=1;endArrow=none;endFill=0;" edge="1" parent="1" source="yz2SOgv6ChgbIjhnNK0O-3">
          <mxGeometry relative="1" as="geometry">
            <mxPoint x="-40" y="310" as="targetPoint" />
          </mxGeometry>
        </mxCell>
        <mxCell id="yz2SOgv6ChgbIjhnNK0O-3" value="добавление товара в корзину" style="rounded=0;whiteSpace=wrap;html=1;" vertex="1" parent="1">
          <mxGeometry x="240" y="280" width="120" height="60" as="geometry" />
        </mxCell>
        <mxCell id="yz2SOgv6ChgbIjhnNK0O-15" style="edgeStyle=orthogonalEdgeStyle;rounded=0;orthogonalLoop=1;jettySize=auto;html=1;endArrow=none;endFill=0;startArrow=classicThin;startFill=1;" edge="1" parent="1" source="yz2SOgv6ChgbIjhnNK0O-4">
          <mxGeometry relative="1" as="geometry">
            <mxPoint x="460" y="120" as="targetPoint" />
          </mxGeometry>
        </mxCell>
        <mxCell id="yz2SOgv6ChgbIjhnNK0O-27" style="edgeStyle=orthogonalEdgeStyle;rounded=0;orthogonalLoop=1;jettySize=auto;html=1;entryX=0.25;entryY=0;entryDx=0;entryDy=0;startArrow=none;startFill=0;endArrow=classicThin;endFill=1;" edge="1" parent="1" source="yz2SOgv6ChgbIjhnNK0O-4" target="yz2SOgv6ChgbIjhnNK0O-5">
          <mxGeometry relative="1" as="geometry" />
        </mxCell>
        <mxCell id="yz2SOgv6ChgbIjhnNK0O-39" style="edgeStyle=orthogonalEdgeStyle;rounded=0;orthogonalLoop=1;jettySize=auto;html=1;startArrow=classicThin;startFill=1;endArrow=none;endFill=0;" edge="1" parent="1" source="yz2SOgv6ChgbIjhnNK0O-4">
          <mxGeometry relative="1" as="geometry">
            <mxPoint x="-40" y="370" as="targetPoint" />
          </mxGeometry>
        </mxCell>
        <mxCell id="yz2SOgv6ChgbIjhnNK0O-4" value="оплата товара" style="rounded=0;whiteSpace=wrap;html=1;" vertex="1" parent="1">
          <mxGeometry x="400" y="340" width="120" height="60" as="geometry" />
        </mxCell>
        <mxCell id="yz2SOgv6ChgbIjhnNK0O-17" style="edgeStyle=orthogonalEdgeStyle;rounded=0;orthogonalLoop=1;jettySize=auto;html=1;endArrow=none;endFill=0;startArrow=openThin;startFill=0;" edge="1" parent="1" source="yz2SOgv6ChgbIjhnNK0O-5">
          <mxGeometry relative="1" as="geometry">
            <mxPoint x="620" y="120" as="targetPoint" />
          </mxGeometry>
        </mxCell>
        <mxCell id="yz2SOgv6ChgbIjhnNK0O-19" style="edgeStyle=orthogonalEdgeStyle;rounded=0;orthogonalLoop=1;jettySize=auto;html=1;startArrow=none;startFill=0;endArrow=classicThin;endFill=1;" edge="1" parent="1" source="yz2SOgv6ChgbIjhnNK0O-5">
          <mxGeometry relative="1" as="geometry">
            <mxPoint x="820" y="430" as="targetPoint" />
          </mxGeometry>
        </mxCell>
        <mxCell id="yz2SOgv6ChgbIjhnNK0O-5" value="получение товара" style="rounded=0;whiteSpace=wrap;html=1;" vertex="1" parent="1">
          <mxGeometry x="560" y="400" width="120" height="60" as="geometry" />
        </mxCell>
        <mxCell id="yz2SOgv6ChgbIjhnNK0O-23" style="edgeStyle=orthogonalEdgeStyle;rounded=0;orthogonalLoop=1;jettySize=auto;html=1;entryX=0;entryY=0.25;entryDx=0;entryDy=0;startArrow=none;startFill=0;endArrow=classicThin;endFill=1;exitX=0.5;exitY=1;exitDx=0;exitDy=0;" edge="1" parent="1" source="yz2SOgv6ChgbIjhnNK0O-6" target="yz2SOgv6ChgbIjhnNK0O-2">
          <mxGeometry relative="1" as="geometry" />
        </mxCell>
        <mxCell id="yz2SOgv6ChgbIjhnNK0O-24" style="edgeStyle=orthogonalEdgeStyle;rounded=0;orthogonalLoop=1;jettySize=auto;html=1;exitX=0.25;exitY=1;exitDx=0;exitDy=0;entryX=0;entryY=0.75;entryDx=0;entryDy=0;startArrow=none;startFill=0;endArrow=classicThin;endFill=1;" edge="1" parent="1" source="yz2SOgv6ChgbIjhnNK0O-6" target="yz2SOgv6ChgbIjhnNK0O-5">
          <mxGeometry relative="1" as="geometry">
            <Array as="points">
              <mxPoint x="-40" y="160" />
              <mxPoint x="-40" y="445" />
            </Array>
          </mxGeometry>
        </mxCell>
        <mxCell id="yz2SOgv6ChgbIjhnNK0O-6" value="товары" style="text;html=1;strokeColor=none;fillColor=none;align=center;verticalAlign=middle;whiteSpace=wrap;rounded=0;" vertex="1" parent="1">
          <mxGeometry x="-80" y="130" width="140" height="30" as="geometry" />
        </mxCell>
        <mxCell id="yz2SOgv6ChgbIjhnNK0O-9" value="" style="endArrow=none;html=1;rounded=0;" edge="1" parent="1">
          <mxGeometry width="50" height="50" relative="1" as="geometry">
            <mxPoint x="140" y="120" as="sourcePoint" />
            <mxPoint x="620" y="120" as="targetPoint" />
          </mxGeometry>
        </mxCell>
        <mxCell id="yz2SOgv6ChgbIjhnNK0O-20" value="выполненный заказ" style="text;html=1;strokeColor=none;fillColor=none;align=center;verticalAlign=middle;whiteSpace=wrap;rounded=0;" vertex="1" parent="1">
          <mxGeometry x="690" y="400" width="120" height="30" as="geometry" />
        </mxCell>
        <mxCell id="yz2SOgv6ChgbIjhnNK0O-35" value="" style="endArrow=classicThin;html=1;rounded=0;entryX=0;entryY=0.5;entryDx=0;entryDy=0;endFill=1;" edge="1" parent="1" target="yz2SOgv6ChgbIjhnNK0O-2">
          <mxGeometry width="50" height="50" relative="1" as="geometry">
            <mxPoint x="-40" y="250" as="sourcePoint" />
            <mxPoint x="70" y="250" as="targetPoint" />
          </mxGeometry>
        </mxCell>
      </root>
    </mxGraphModel>
  </diagram>
</mxfile>
